HIERARCHY
ROOT hip
{
  OFFSET 0.00112043 5.09927 -9.65472
  CHANNELS 6 Xposition Yposition Zposition Zrotation Xrotation Yrotation
  JOINT abdomen
  {
    OFFSET 0 -1.186 -1.5018
    CHANNELS 3 Zrotation Xrotation Yrotation
    JOINT abdomen2
    {
      OFFSET 0 9.964 0.2134
      CHANNELS 3 Zrotation Xrotation Yrotation
      JOINT chest
      {
        OFFSET 0 13.134 -3.2573
        CHANNELS 3 Zrotation Xrotation Yrotation
        JOINT neck
        {
          OFFSET 0 20.686 -1.6905
          CHANNELS 3 Zrotation Xrotation Yrotation
          JOINT head
          {
            OFFSET 0 7.238 -0.1237
            CHANNELS 3 Zrotation Xrotation Yrotation
            End Site
            {
              OFFSET 0 0 0
            }
          }
        }
        JOINT lCollar
        {
          OFFSET 1.7069 20.075 5.0056
          CHANNELS 3 Zrotation Xrotation Yrotation
          JOINT lShldr
          {
            OFFSET 13.6458 -0.047 -4.849
            CHANNELS 3 Zrotation Xrotation Yrotation
            JOINT lForeArm
            {
              OFFSET 28.3255 -0.9759 2.2888
              CHANNELS 3 Zrotation Xrotation Yrotation
              JOINT lHand
              {
                OFFSET 22.1583 -0.53 10.8316
                CHANNELS 3 Zrotation Xrotation Yrotation
                JOINT lThumb1
                {
                  OFFSET 0.786 0.112 2.5817
                  CHANNELS 3 Zrotation Xrotation Yrotation
                  JOINT lThumb2
                  {
                    OFFSET 0.3601 -0.878 4.2331
                    CHANNELS 3 Zrotation Xrotation Yrotation
                    JOINT lThumb2_End
                    {
                      OFFSET 1.8127 -1.216 2.2227
                      CHANNELS 3 Zrotation Xrotation Yrotation
                      End Site
                      {
                        OFFSET 0.0181 -0.0122 0.0222
                      }
                    }
                  }
                }
                JOINT lCarpal1
                {
                  OFFSET 0.9571 1.114 1.7695
                  CHANNELS 3 Zrotation Xrotation Yrotation
                  JOINT lIndex1
                  {
                    OFFSET 4.1246 0.487 4.1451
                    CHANNELS 3 Zrotation Xrotation Yrotation
                    JOINT lIndex2
                    {
                      OFFSET 3.4052 -1.454 2.7682
                      CHANNELS 3 Zrotation Xrotation Yrotation
                      JOINT lIndex2_End
                      {
                        OFFSET 1.4531 -1.795 1.2713
                        CHANNELS 3 Zrotation Xrotation Yrotation
                        End Site
                        {
                          OFFSET 0.0145 -0.0179 0.0127
                        }
                      }
                    }
                  }
                  JOINT lMid1
                  {
                    OFFSET 5.6954 0.21 2.1184
                    CHANNELS 3 Zrotation Xrotation Yrotation
                    JOINT lMid2
                    {
                      OFFSET 3.9766 -1.54 2.3863
                      CHANNELS 3 Zrotation Xrotation Yrotation
                      JOINT lMid2_End
                      {
                        OFFSET 1.4042 -1.926 1.125
                        CHANNELS 3 Zrotation Xrotation Yrotation
                        End Site
                        {
                          OFFSET 0.014 -0.0193 0.0113
                        }
                      }
                    }
                  }
                }
                JOINT lCarpal2
                {
                  OFFSET 2.0956 0.66 -0.3894
                  CHANNELS 3 Zrotation Xrotation Yrotation
                  JOINT lRing1
                  {
                    OFFSET 5.0395 -0.09 2.4971
                    CHANNELS 3 Zrotation Xrotation Yrotation
                    JOINT lRing2
                    {
                      OFFSET 3.7921 -1.552 1.4806
                      CHANNELS 3 Zrotation Xrotation Yrotation
                      JOINT lRing2_End
                      {
                        OFFSET 1.4655 -1.808 0.9609
                        CHANNELS 3 Zrotation Xrotation Yrotation
                        End Site
                        {
                          OFFSET 0.0147 -0.0181 0.0096
                        }
                      }
                    }
                  }
                  JOINT lPinky1
                  {
                    OFFSET 4.9141 -1.269 0.3591
                    CHANNELS 3 Zrotation Xrotation Yrotation
                    JOINT lPinky2
                    {
                      OFFSET 3.1477 -1.685 0.8462
                      CHANNELS 3 Zrotation Xrotation Yrotation
                      JOINT lPinky2_End
                      {
                        OFFSET 0.8055 -1.585 0.7955
                        CHANNELS 3 Zrotation Xrotation Yrotation
                        End Site
                        {
                          OFFSET 0.0081 -0.0158 0.008
                        }
                      }
                    }
                  }
                }
              }
            }
          }
        }
        JOINT rCollar
        {
          OFFSET -1.7069 20.075 5.0056
          CHANNELS 3 Zrotation Xrotation Yrotation
          JOINT rShldr
          {
            OFFSET -13.6458 -0.047 -4.849
            CHANNELS 3 Zrotation Xrotation Yrotation
            JOINT rForeArm
            {
              OFFSET -28.3255 -0.9759 2.2888
              CHANNELS 3 Zrotation Xrotation Yrotation
              JOINT rHand
              {
                OFFSET -22.1583 -0.53 10.8316
                CHANNELS 3 Zrotation Xrotation Yrotation
                JOINT rThumb1
                {
                  OFFSET -0.786 0.112 2.5817
                  CHANNELS 3 Zrotation Xrotation Yrotation
                  JOINT rThumb2
                  {
                    OFFSET -0.3601 -0.878 4.2331
                    CHANNELS 3 Zrotation Xrotation Yrotation
                    JOINT rThumb2_End
                    {
                      OFFSET -1.8127 -1.216 2.2227
                      CHANNELS 3 Zrotation Xrotation Yrotation
                      End Site
                      {
                        OFFSET -0.0181 -0.0122 0.0222
                      }
                    }
                  }
                }
                JOINT rCarpal1
                {
                  OFFSET -0.9571 1.114 1.7695
                  CHANNELS 3 Zrotation Xrotation Yrotation
                  JOINT rIndex1
                  {
                    OFFSET -4.1246 0.487 4.1451
                    CHANNELS 3 Zrotation Xrotation Yrotation
                    JOINT rIndex2
                    {
                      OFFSET -3.4052 -1.454 2.7682
                      CHANNELS 3 Zrotation Xrotation Yrotation
                      JOINT rIndex2_End
                      {
                        OFFSET -1.4531 -1.795 1.2713
                        CHANNELS 3 Zrotation Xrotation Yrotation
                        End Site
                        {
                          OFFSET -0.0145 -0.018 0.0127
                        }
                      }
                    }
                  }
                  JOINT rMid1
                  {
                    OFFSET -5.6954 0.21 2.1184
                    CHANNELS 3 Zrotation Xrotation Yrotation
                    JOINT rMid2
                    {
                      OFFSET -3.9766 -1.54 2.3863
                      CHANNELS 3 Zrotation Xrotation Yrotation
                      JOINT rMid2_End
                      {
                        OFFSET -1.4042 -1.926 1.125
                        CHANNELS 3 Zrotation Xrotation Yrotation
                        End Site
                        {
                          OFFSET -0.014 -0.0193 0.0113
                        }
                      }
                    }
                  }
                }
                JOINT rCarpal2
                {
                  OFFSET -2.0956 0.66 -0.3894
                  CHANNELS 3 Zrotation Xrotation Yrotation
                  JOINT rRing1
                  {
                    OFFSET -5.0395 -0.09 2.4971
                    CHANNELS 3 Zrotation Xrotation Yrotation
                    JOINT rRing2
                    {
                      OFFSET -3.7921 -1.552 1.4806
                      CHANNELS 3 Zrotation Xrotation Yrotation
                      JOINT rRing2_End
                      {
                        OFFSET -1.4655 -1.808 0.9609
                        CHANNELS 3 Zrotation Xrotation Yrotation
                        End Site
                        {
                          OFFSET -0.0147 -0.0181 0.0096
                        }
                      }
                    }
                  }
                  JOINT rPinky1
                  {
                    OFFSET -4.9141 -1.269 0.3592
                    CHANNELS 3 Zrotation Xrotation Yrotation
                    JOINT rPinky2
                    {
                      OFFSET -3.1477 -1.685 0.8462
                      CHANNELS 3 Zrotation Xrotation Yrotation
                      JOINT rPinky2_End
                      {
                        OFFSET -0.8055 -1.585 0.7955
                        CHANNELS 3 Zrotation Xrotation Yrotation
                        End Site
                        {
                          OFFSET -0.0081 -0.0158 0.008
                        }
                      }
                    }
                  }
                }
              }
            }
          }
        }
      }
    }
  }
  JOINT lThigh
  {
    OFFSET 8.367 -8.2066 0.5982
    CHANNELS 3 Zrotation Xrotation Yrotation
    JOINT lShin
    {
      OFFSET 2.1923 -43.463 -0.4932
      CHANNELS 3 Zrotation Xrotation Yrotation
      JOINT lFoot
      {
        OFFSET 0.7333 -45.8593 -2.6451
        CHANNELS 3 Zrotation Xrotation Yrotation
        End Site
        {
          OFFSET 2.6618 -4.2699 12.3931
        }
      }
    }
  }
  JOINT rThigh
  {
    OFFSET -8.367 -8.2066 0.5982
    CHANNELS 3 Zrotation Xrotation Yrotation
    JOINT rShin
    {
      OFFSET -2.1923 -43.463 -0.4931
      CHANNELS 3 Zrotation Xrotation Yrotation
      JOINT rFoot
      {
        OFFSET -0.7333 -45.8593 -2.6451
        CHANNELS 3 Zrotation Xrotation Yrotation
        End Site
        {
          OFFSET -2.6618 -4.2699 12.3931
        }
      }
    }
  }
}
MOTION
Frames:	4
Frame Time:	0.0333333
0.00488403 12.6815 9.20822 0 85.7025 -0 -0.30999 0.0826785 -0.108324 -0.619824 0.165962 -0.216199 -0.619825 0.165937 -0.216199 24.8488 14.5837 -6.65296 19.4399 21.8116 -7.47377 -8.00265 -0.194467 1.02187e-006 -78.133 -10.8867 -57.6143 45.995 -31.4628 -92.8728 -3.82958 9.25574 -0.444965 1.34281e-006 1.01658e-006 -2.02939e-007 1.8511e-006 3.45178e-007 -3.00353e-007 1.34281e-006 1.01658e-006 -2.02939e-007 3.97569e-016 2.5842e-015 -3.18055e-015 1.34281e-006 1.01658e-006 -2.02939e-007 1.8511e-006 3.45178e-007 -3.00353e-007 1.34281e-006 1.01658e-006 -2.02939e-007 1.34281e-006 1.01658e-006 -2.02939e-007 1.8511e-006 3.45178e-007 -3.00353e-007 1.34281e-006 1.01658e-006 -2.02939e-007 3.97569e-016 2.5842e-015 -3.18055e-015 1.34281e-006 1.01658e-006 -2.02939e-007 1.8511e-006 3.45178e-007 -3.00353e-007 1.34281e-006 1.01658e-006 -2.02939e-007 1.34281e-006 1.01658e-006 -2.02939e-007 1.8511e-006 3.45178e-007 -3.00353e-007 1.34281e-006 1.01658e-006 -2.02939e-007 7.99916 -0.194704 4.60555e-008 78.2434 -10.7119 58.3657 -46.2745 -32.506 92.0293 3.7511 9.26134 0.697254 5.23326e-007 6.61656e-007 -8.42868e-008 -3.57812e-015 -3.8763e-015 -1.27222e-014 1.84664e-006 -3.84995e-007 -2.85953e-007 3.97569e-016 1.49089e-015 1.59028e-015 5.23326e-007 6.61656e-007 -8.42868e-008 -4.37326e-015 -6.26172e-015 -1.27222e-014 1.84664e-006 -3.84995e-007 -2.85953e-007 5.23326e-007 6.61656e-007 -8.42868e-008 -4.37326e-015 -6.26172e-015 -1.27222e-014 1.84664e-006 -3.84995e-007 -2.85953e-007 3.97569e-016 1.49089e-015 1.59028e-015 5.23326e-007 6.61656e-007 -8.42868e-008 -4.37326e-015 -6.26172e-015 -1.27222e-014 1.84664e-006 -3.84995e-007 -2.85953e-007 5.23326e-007 6.61656e-007 -8.42868e-008 -4.37326e-015 -6.26172e-015 -1.27222e-014 1.84664e-006 -3.84995e-007 -2.85953e-007 126.11 -25.0462 113.583 -177.146 51.7818 -173.318 -1.77516 29.0763 10.4474 -126.122 -25.0439 -113.596 177.257 51.7797 173.258 1.78363 29.1047 -10.4562 
0.00478967 12.6991 9.21906 0 85.2623 -0 -0.310223 0.194002 -0.106512 -0.62009 0.388588 -0.211974 -0.620089 0.388568 -0.211974 24.8488 14.5834 -6.65313 19.4399 21.8116 -7.47378 -8.00287 -0.194331 -5.3812e-005 -78.133 -10.8867 -57.6143 45.995 -31.4628 -92.8728 -3.82957 9.25574 -0.44496 -1.34301e-006 -1.01639e-006 2.0157e-007 -6.71504e-007 -5.08196e-007 1.00785e-007 -6.71504e-007 -5.08196e-007 1.00785e-007 -1.59028e-015 2.98177e-016 3.18055e-015 -1.34301e-006 -1.01639e-006 2.0157e-007 -6.71504e-007 -5.08196e-007 1.00785e-007 -6.71504e-007 -5.08196e-007 1.00785e-007 -1.34301e-006 -1.01639e-006 2.0157e-007 -6.71504e-007 -5.08196e-007 1.00785e-007 -6.71504e-007 -5.08196e-007 1.00785e-007 -1.59028e-015 2.98177e-016 3.18055e-015 -1.34301e-006 -1.01639e-006 2.0157e-007 -6.71504e-007 -5.08196e-007 1.00785e-007 -6.71504e-007 -5.08196e-007 1.00785e-007 -1.34301e-006 -1.01639e-006 2.0157e-007 -6.71504e-007 -5.08196e-007 1.00785e-007 -6.71504e-007 -5.08196e-007 1.00785e-007 7.99895 -0.19459 -9.11081e-005 78.2434 -10.7119 58.3658 -46.2745 -32.506 92.0293 3.75109 9.26135 0.697241 2.12481e-006 -3.67918e-007 5.09377e-006 -2.44467e-007 -5.72886e-007 3.19317e-006 7.67702e-007 1.23465e-006 -3.27799e-006 -3.97569e-016 3.27995e-015 -0 2.12481e-006 -3.67918e-007 5.09377e-006 -2.44467e-007 -5.72886e-007 3.19317e-006 7.67702e-007 1.23465e-006 -3.27799e-006 2.12481e-006 -3.67918e-007 5.09377e-006 -2.44467e-007 -5.72886e-007 3.19317e-006 7.67702e-007 1.23465e-006 -3.27799e-006 -3.97569e-016 3.27995e-015 -0 2.12481e-006 -3.67918e-007 5.09377e-006 -2.44467e-007 -5.72886e-007 3.19317e-006 7.67702e-007 1.23465e-006 -3.27799e-006 2.12481e-006 -3.67918e-007 5.09377e-006 -2.44467e-007 -5.72886e-007 3.19317e-006 7.67702e-007 1.23465e-006 -3.27799e-006 125.704 -25.3726 113.176 -177.144 51.7694 -173.35 -1.38723 28.9883 10.2301 -125.715 -25.3684 -113.188 177.255 51.7677 173.289 1.3982 29.0333 -10.2412 
0.00469566 12.7171 9.22931 0 84.822 -0 -0.310541 0.30545 -0.104719 -0.620537 0.611465 -0.207786 -0.620537 0.611446 -0.207786 24.8492 14.584 -6.65311 19.4399 21.8116 -7.47378 -8.00273 -0.194377 -1.20768e-005 -78.133 -10.8867 -57.6143 45.995 -31.4628 -92.8728 -3.82958 9.25575 -0.444984 1.85131e-006 3.44598e-007 -2.98651e-007 3.97569e-016 -6.75868e-015 6.36111e-015 1.34321e-006 1.0162e-006 -2.00199e-007 1.98785e-015 -5.86415e-015 -0 1.85131e-006 3.44598e-007 -2.98651e-007 -3.97569e-016 -6.95746e-016 3.18055e-015 1.34321e-006 1.0162e-006 -2.00199e-007 1.85131e-006 3.44598e-007 -2.98651e-007 -3.97569e-016 -6.95746e-016 3.18055e-015 1.34321e-006 1.0162e-006 -2.00199e-007 1.98785e-015 -5.86415e-015 -0 1.85131e-006 3.44598e-007 -2.98651e-007 -3.97569e-016 -6.95746e-016 3.18055e-015 1.34321e-006 1.0162e-006 -2.00199e-007 1.85131e-006 3.44598e-007 -2.98651e-007 -3.97569e-016 -6.95746e-016 3.18055e-015 1.34321e-006 1.0162e-006 -2.00199e-007 7.99908 -0.194631 -3.661e-005 78.2434 -10.7119 58.3658 -46.2745 -32.506 92.0293 3.7511 9.26135 0.697274 1.70816e-006 8.00588e-007 -2.7019e-007 1.84688e-006 -3.84423e-007 -2.84323e-007 5.23144e-007 6.61866e-007 -8.5352e-008 -7.95139e-016 -3.77691e-015 -0 1.70816e-006 8.00588e-007 -2.7019e-007 1.84688e-006 -3.84423e-007 -2.84323e-007 5.23144e-007 6.61866e-007 -8.5352e-008 1.70816e-006 8.00588e-007 -2.7019e-007 1.84688e-006 -3.84423e-007 -2.84323e-007 5.23144e-007 6.61866e-007 -8.5352e-008 -7.95139e-016 -3.77691e-015 -0 1.70816e-006 8.00588e-007 -2.7019e-007 1.84688e-006 -3.84423e-007 -2.84323e-007 5.23144e-007 6.61866e-007 -8.5352e-008 1.70816e-006 8.00588e-007 -2.7019e-007 1.84688e-006 -3.84423e-007 -2.84323e-007 5.23144e-007 6.61866e-007 -8.5352e-008 125.294 -25.6968 112.765 -177.141 51.7567 -173.381 -0.999796 28.8992 10.0137 -125.305 -25.6908 -112.777 177.252 51.7555 173.319 1.0132 28.9608 -10.0269 
0.00460312 12.7353 9.23899 0 84.3815 -0 -0.310835 0.416934 -0.102908 -0.620946 0.834428 -0.203561 -0.620946 0.83443 -0.203561 24.8487 14.5839 -6.6531 19.4399 21.8116 -7.47377 -8.00279 -0.194284 -2.16113e-005 -78.133 -10.8867 -57.6142 45.995 -31.4628 -92.8728 -3.82958 9.25574 -0.444978 -1.85141e-006 -3.44303e-007 2.97796e-007 -1.34341e-006 -1.01601e-006 1.98825e-007 -1.34341e-006 -1.01601e-006 1.98825e-007 -1.48969e-031 -2.68359e-015 -3.18055e-015 -1.85141e-006 -3.44303e-007 2.97796e-007 -1.34341e-006 -1.01601e-006 1.98825e-007 -1.34341e-006 -1.01601e-006 1.98825e-007 -1.85141e-006 -3.44303e-007 2.97796e-007 -1.34341e-006 -1.01601e-006 1.98825e-007 -1.34341e-006 -1.01601e-006 1.98825e-007 -1.48969e-031 -2.68359e-015 -3.18055e-015 -1.85141e-006 -3.44303e-007 2.97796e-007 -1.34341e-006 -1.01601e-006 1.98825e-007 -1.34341e-006 -1.01601e-006 1.98825e-007 -1.85141e-006 -3.44303e-007 2.97796e-007 -1.34341e-006 -1.01601e-006 1.98825e-007 -1.34341e-006 -1.01601e-006 1.98825e-007 7.99902 -0.194529 -7.15483e-005 78.2434 -10.7118 58.3657 -46.2745 -32.506 92.0293 3.7511 9.26135 0.697265 1.84699e-006 -3.84137e-007 -2.83505e-007 1.92235e-006 -1.1864e-006 1.25662e-005 3.54174e-006 7.24432e-008 6.01186e-006 7.95139e-016 -1.78906e-015 -1.59028e-015 1.84699e-006 -3.84137e-007 -2.83505e-007 1.92235e-006 -1.1864e-006 1.25662e-005 3.54174e-006 7.24432e-008 6.01186e-006 1.84699e-006 -3.84137e-007 -2.83505e-007 1.92235e-006 -1.1864e-006 1.25662e-005 3.54174e-006 7.24432e-008 6.01186e-006 7.95139e-016 -1.78906e-015 -1.59028e-015 1.84699e-006 -3.84137e-007 -2.83505e-007 1.92235e-006 -1.1864e-006 1.25662e-005 3.54174e-006 7.24432e-008 6.01186e-006 1.84699e-006 -3.84137e-007 -2.83505e-007 1.92235e-006 -1.1864e-006 1.25662e-005 3.54174e-006 7.24432e-008 6.01186e-006 124.881 -26.0186 112.351 -177.139 51.7438 -173.411 -0.612864 28.8089 9.7983 -124.891 -26.0108 -112.362 177.25 51.7431 173.349 0.628486 28.8872 -9.81335 
